<svg xmlns="http://www.w3.org/2000/svg" viewBox="0 0 120 120" role="img" aria-hidden="true"><rect width="120" height="120" fill="#0f172a"/><polygon points="36,0 48,12 36,24 24,12" fill="#3f9e2e"/><polygon points="84,0 96,12 84,24 72,12" fill="#3f9e2e"/><polygon points="36,24 48,36 36,48 24,36" fill="#c6c42f"/><polygon points="60,24 72,36 60,48 48,36" fill="#3f9e2e"/><polygon points="84,24 96,36 84,48 72,36" fill="#c6c42f"/><polygon points="12,48 24,60 12,72 0,60" fill="#c6c42f"/><polygon points="60,48 72,60 60,72 48,60" fill="#c6c42f"/><polygon points="108,48 120,60 108,72 96,60" fill="#c6c42f"/><polygon points="36,72 48,84 36,96 24,84" fill="#c6c42f"/><polygon points="84,72 96,84 84,96 72,84" fill="#c6c42f"/><polygon points="12,96 24,108 12,120 0,108" fill="#c6c42f"/><polygon points="36,96 48,108 36,120 24,108" fill="#3f9e2e"/><polygon points="84,96 96,108 84,120 72,108" fill="#3f9e2e"/><polygon points="108,96 120,108 108,120 96,108" fill="#c6c42f"/></svg>