<svg xmlns="http://www.w3.org/2000/svg" viewBox="0 0 120 120" role="img" aria-hidden="true"><rect width="120" height="120" fill="#0f172a"/><polygon points="12,0 24,12 12,24 0,12" fill="#2fc66e"/><polygon points="60,0 72,12 60,24 48,12" fill="#2fc66e"/><polygon points="108,0 120,12 108,24 96,12" fill="#2fc66e"/><polygon points="12,24 24,36 12,48 0,36" fill="#2e669e"/><polygon points="36,24 48,36 36,48 24,36" fill="#2fc66e"/><polygon points="60,24 72,36 60,48 48,36" fill="#2e669e"/><polygon points="84,24 96,36 84,48 72,36" fill="#2fc66e"/><polygon points="108,24 120,36 108,48 96,36" fill="#2e669e"/><polygon points="60,48 72,60 60,72 48,60" fill="#2fc66e"/><polygon points="12,72 24,84 12,96 0,84" fill="#2e669e"/><polygon points="108,72 120,84 108,96 96,84" fill="#2e669e"/></svg>